<svg id="Cluster" enable-background="new 0 0 512 512" height="512" viewBox="0 0 512 512" width="512" xmlns="http://www.w3.org/2000/svg"><path id="line" d="m470 240v-112c0-2.2-1.2-4.2-3.1-5.3l-88-48c-1.8-1-4-1-5.7 0l-23.2 12.6v-23.3c0-2.2-1.2-4.2-3.1-5.3l-88-48c-1.8-1-4-1-5.7 0l-88 48c-1.9 1.1-3.1 3.1-3.1 5.3v23.3l-23.1-12.6c-1.8-1-4-1-5.7 0l-88 48c-1.9 1.1-3.1 3.1-3.1 5.3v112c0 2.2 1.2 4.2 3.1 5.3l19.5 10.7-19.7 10.7c-1.9 1.1-3.1 3.1-3.1 5.3v112c0 2.2 1.2 4.2 3.1 5.3l88 48c1.8 1 4 1 5.7 0l23.1-12.6v23.3c0 2.2 1.2 4.2 3.1 5.3l88 48c1.8 1 4 1 5.7 0l88-48c1.9-1.1 3.1-3.1 3.1-5.3v-23.4l23.1 12.6c1.8 1 4 1 5.7 0l88-48c1.9-1.1 3.1-3.1 3.1-5.3v-111.9c0-2.2-1.2-4.2-3.1-5.3l-19.4-10.7 19.7-10.7c1.9-1.1 3.1-3.1 3.1-5.3zm-94-153.2 75.5 41.2-75.5 41.2-75.5-41.2zm-6 335.1-20-10.9v-75c0-2.2-1.2-4.2-3.1-5.3l-19.7-10.7 18.1-9.9 24.7 13.5zm-114-44.7-75.5-41.2 16.8-9.2 55.8 30.4c1.8 1 4 1 5.7 0l55.8-30.4 16.8 9.2zm-114-197.6 76-41.4v19.8l-52.9 28.8c-1.9 1.1-3.1 3.1-3.1 5.3v75l-20 10.9zm32-105.5 76 41.4v24.9l-20 10.9v-23.3c0-2.2-1.2-4.2-3.1-5.3l-52.9-28.8zm164 19.8-52.9 28.8c-1.9 1.1-3.1 3.1-3.1 5.3v23.4l-20-10.9v-24.9l76-41.4zm-76 248v-98.3l76-41.4v98.3zm-6-108.7-75.5-41.2 75.5-41.2 75.5 41.2zm-82-31.1 76 41.4v98.3l-76-41.5zm172.9-15.4-52.9-28.8v-19.8l76 41.4v98.3l-20-10.8v-75c0-2.2-1.2-4.2-3.1-5.3zm-90.9-163.9 75.5 41.2-75.5 41.2-75.5-41.2zm-120 64 75.5 41.2-75.5 41.2-75.5-41.2zm-82 149.6v-98.3l76 41.4v98.3l-49.8-27.2zm23.3 26.4 55.8 30.4c1.8 1 4 1 5.7 0l23.1-12.6v18.4l-26 14.2-75.4-41.2zm-23.3 19.3 76 41.5v98.3l-76-41.5zm88 139.8v-98.3l24.7-13.5 18.1 9.9-19.7 10.7c-1.9 1.1-3.1 3.1-3.1 5.3v75zm32-75.8 76 41.5v98.3l-76-41.5zm164 98.3-76 41.5v-98.3l76-41.5zm44-22.5v-98.3l76-41.5v98.3zm69.5-149.9-75.5 41.2-26-14.2v-18.4l23.1 12.6c1.8 1 4 1 5.7 0l55.8-30.4zm-19.7-21.3-49.8 27.2v-98.3l76-41.4v98.3z"/></svg>