<?xml version="1.0" encoding="iso-8859-1"?>
<!-- Generator: Adobe Illustrator 19.0.0, SVG Export Plug-In . SVG Version: 6.00 Build 0)  -->
<svg version="1.1" id="Capa_1" xmlns="http://www.w3.org/2000/svg" xmlns:xlink="http://www.w3.org/1999/xlink" x="0px" y="0px"
	 viewBox="0 0 512 512" style="enable-background:new 0 0 512 512;" xml:space="preserve">
<g>
	<g>
		<path d="M510.858,98.137c-7.425-12.879-12.058-21.3-16.691-29.717c-4.683-8.508-9.367-17.013-16.867-30.017
			c-0.125-0.216-0.307-0.381-0.448-0.583c-0.147-0.211-0.296-0.405-0.464-0.603c-0.653-0.775-1.388-1.463-2.255-1.958
			c-0.007-0.004-0.01-0.011-0.017-0.015c-0.028-0.016-0.059-0.013-0.087-0.029c-0.841-0.466-1.769-0.739-2.732-0.899
			c-0.258-0.043-0.502-0.082-0.76-0.101c-0.213-0.016-0.414-0.083-0.629-0.083H42.092c-3.05,0-5.867,1.629-7.392,4.271
			c-7.5,13.004-12.183,21.508-16.867,30.017C13.2,76.838,8.567,85.258,1.142,98.137c-0.114,0.197-0.159,0.417-0.255,0.62
			c-0.114,0.239-0.205,0.472-0.297,0.722c-0.344,0.937-0.577,1.901-0.582,2.884c0,0.012-0.007,0.023-0.007,0.035
			c0,0.003,0.002,0.005,0.002,0.008c0,1.001,0.24,1.982,0.592,2.934c0.09,0.241,0.181,0.467,0.291,0.697
			c0.103,0.216,0.152,0.448,0.274,0.657l213.908,366.933c1.533,2.625,4.342,4.237,7.375,4.237h67.117
			c0.002,0,0.003-0.001,0.004-0.001s0.003,0.001,0.004,0.001c0.452,0,0.902-0.107,1.353-0.18c0.284-0.046,0.582-0.04,0.858-0.114
			c0.073-0.02,0.141-0.067,0.214-0.089c0.655-0.196,1.289-0.452,1.876-0.796c0.016-0.009,0.034-0.012,0.05-0.021
			c0.047-0.028,0.07-0.077,0.117-0.106c0.805-0.498,1.494-1.154,2.1-1.901c0.151-0.186,0.298-0.36,0.432-0.557
			c0.114-0.167,0.265-0.298,0.368-0.474l213.908-366.933C512.383,104.054,512.383,100.787,510.858,98.137z M32.792,76.65
			c4.1-7.454,8.2-14.908,14.242-25.45H455.25L290.667,341.187l-22.633-39.276l114.792-195.187c1.55-2.637,1.567-5.904,0.05-8.563
			c-1.525-2.658-4.35-4.296-7.408-4.296H23.223C26.869,87.398,29.844,81.997,32.792,76.65z M258.232,284.904l-70.749-122.771
			h142.955L258.232,284.904z M227.342,460.8L23.383,110.933H360.55l-20.075,34.133H101.8c-4.717,0-8.533,3.821-8.533,8.533
			c0,1.812,0.567,3.496,1.533,4.879L274.557,460.8H227.342z M289.487,452.517L116.825,162.133h50.961l115.331,200.146
			c0.075,0.142,0.15,0.279,0.233,0.417c1.525,2.621,4.35,4.237,7.383,4.237c3.05,0,5.867-1.625,7.392-4.263
			c0.108-0.196,0.217-0.396,0.308-0.6l171.492-302.14c3.521,6.252,6.422,11.517,9.283,16.719c4.15,7.529,8.292,15.063,14.4,25.721
			L289.487,452.517z"/>
	</g>
</g>
<g>
</g>
<g>
</g>
<g>
</g>
<g>
</g>
<g>
</g>
<g>
</g>
<g>
</g>
<g>
</g>
<g>
</g>
<g>
</g>
<g>
</g>
<g>
</g>
<g>
</g>
<g>
</g>
<g>
</g>
</svg>
