<svg width="276" height="280" viewBox="0 0 276 280" fill="none" xmlns="http://www.w3.org/2000/svg">
<path opacity="0.4" d="M134.159 2.24465C136.605 1.16315 139.395 1.16315 141.841 2.24465L158.444 9.58414C159.999 10.2716 161.698 10.5711 163.394 10.457L181.506 9.23861C184.175 9.05908 186.795 10.013 188.724 11.866L201.816 24.4414C203.042 25.6192 204.536 26.4816 206.169 26.9546L223.605 32.0043C226.174 32.7484 228.311 34.5412 229.49 36.9422L237.491 53.2367C238.24 54.7628 239.349 56.0842 240.722 57.0872L255.379 67.7959C257.539 69.3739 258.934 71.7893 259.22 74.4488L261.165 92.497C261.348 94.1874 261.938 95.8082 262.885 97.2203L272.996 112.296C274.485 114.518 274.97 117.265 274.33 119.862L269.985 137.487C269.578 139.138 269.578 140.862 269.985 142.513L274.33 160.138C274.97 162.735 274.485 165.482 272.996 167.704L262.885 182.78C261.938 184.192 261.348 185.813 261.165 187.503L259.22 205.551C258.934 208.211 257.539 210.626 255.379 212.204L240.722 222.913C239.349 223.916 238.24 225.237 237.491 226.763L229.49 243.058C228.311 245.459 226.174 247.252 223.605 247.996L206.169 253.045C204.536 253.518 203.042 254.381 201.816 255.559L188.724 268.134C186.795 269.987 184.175 270.941 181.506 270.761L163.394 269.543C161.698 269.429 159.999 269.728 158.444 270.416L141.841 277.755C139.395 278.837 136.605 278.837 134.159 277.755L117.556 270.416C116.001 269.728 114.302 269.429 112.606 269.543L94.4943 270.761C91.8254 270.941 89.2046 269.987 87.2755 268.134L74.1842 255.559C72.9581 254.381 71.4643 253.518 69.8312 253.045L52.395 247.996C49.8257 247.252 47.6891 245.459 46.5102 243.058L38.5094 226.763C37.7601 225.237 36.6513 223.916 35.2785 222.913L20.6209 212.204C18.461 210.626 17.0665 208.211 16.7799 205.551L14.8346 187.503C14.6524 185.813 14.0625 184.192 13.1155 182.78L3.00445 167.704C1.51454 165.482 1.03023 162.735 1.67047 160.138L6.01542 142.513C6.42237 140.862 6.42237 139.138 6.01542 137.487L1.67047 119.862C1.03023 117.265 1.51455 114.518 3.00445 112.296L13.1155 97.2203C14.0625 95.8082 14.6524 94.1874 14.8346 92.497L16.7799 74.4488C17.0665 71.7893 18.461 69.3739 20.6209 67.7959L35.2785 57.0872C36.6513 56.0842 37.7601 54.7629 38.5094 53.2367L46.5102 36.9422C47.6891 34.5412 49.8257 32.7484 52.395 32.0043L69.8312 26.9546C71.4643 26.4816 72.9581 25.6192 74.1842 24.4414L87.2755 11.866C89.2046 10.013 91.8254 9.05908 94.4943 9.23861L112.606 10.457C114.302 10.5711 116.001 10.2716 117.556 9.58413L134.159 2.24465Z" stroke="white"/>
</svg>
