<svg id="Triple_Hollow_Stack_1_" enable-background="new 0 0 512 512" height="512" viewBox="0 0 512 512" width="512" xmlns="http://www.w3.org/2000/svg"><path id="line" d="m470 192v-64c0-2.2-1.2-4.2-3.2-5.3l-208-112c-1.8-1-3.9-1-5.7 0l-208 112c-1.9 1-3.2 3.1-3.2 5.3v64c0 2.2 1.2 4.2 3.2 5.3l20 10.7-19.9 10.7c-1.9 1-3.2 3.1-3.2 5.3v64c0 2.2 1.2 4.2 3.2 5.3l19.9 10.7-19.9 10.7c-1.9 1-3.2 3.1-3.2 5.3v64c0 2.2 1.2 4.2 3.2 5.3l208 112c1.8 1 3.9 1 5.7 0l208-112c1.9-1 3.2-3.1 3.2-5.3v-64c0-2.2-1.2-4.2-3.2-5.3l-20-10.7 19.9-10.7c1.9-1 3.2-3.1 3.2-5.3v-64c0-2.2-1.2-4.2-3.2-5.3l-19.9-10.7 19.9-10.7c2-1.1 3.2-3.1 3.2-5.3zm-214-169.2 195.3 105.2-195.3 105.2-195.3-105.2zm-202 115.3 196 105.5v50.4l-196-105.6zm0 96 196 105.5v50.4l-196-105.6zm0 95.9 196 105.5v50.5l-196-105.6zm208 156v-50.4l196-105.6v50.4zm189.3-166-195.3 105.2-195.3-105.2 17-9.2 175.4 94.5c1.8 1 3.9 1 5.7 0l175.4-94.5zm-189.3 70v-50.4l196-105.5v50.4zm189.3-166-195.3 105.2-195.3-105.2 17-9.2 175.4 94.5c1.8 1 3.9 1 5.7 0l175.4-94.5zm-189.3 70v-50.4l196-105.5v50.4z"/><path id="line-2" d="m402.9 122.8-144-80c-1.8-1-4-1-5.8 0l-144 80c-4.1 2.1-4.1 8.4 0 10.5l144 80c1.8 1 4 1 5.8 0l144-80c4.1-2.2 4.1-8.4 0-10.5zm-152.9-64.6v50.2l-82 43.8-43.7-24.2zm6 142.9-75.6-42 75.6-40.3 75.6 40.4zm88-48.9-82-43.8v-50.2l125.6 69.8z"/></svg>