<svg id="a" height="512" viewBox="0 0 512 512" width="512" xmlns="http://www.w3.org/2000/svg"><path d="m257.527 260.516c-2.283-.906-4.892-.33-6.579 1.459l-108.705 115.24c-2.202 2.335-2.178 5.988.056 8.293l108.705 112.168c3.535 3.882 10.477 1.049 10.309-4.176v-227.408c0-2.459-1.5-4.669-3.785-5.576zm-37.731 187.715-64.888-66.954 64.888-68.789zm29.517 30.457-17.517-18.074v-160.847l17.517-18.57z"/><path d="m248.996 252.056c.907-2.285.329-4.893-1.459-6.58l-115.245-108.699c-2.335-2.201-5.987-2.177-8.293.056l-112.175 108.699c-1.755 1.701-2.303 4.296-1.386 6.562.918 2.265 3.117 3.748 5.562 3.748h227.42c2.459 0 4.669-1.5 5.576-3.785zm-120.766-102.613 67.803 63.951h-133.799zm-97.417 94.398 19.037-18.447h158.906l19.558 18.447z"/><path d="m226.188 267.129c-.917-2.266-3.117-3.749-5.562-3.749h-130.673c-3.24 0-5.895 2.572-5.997 5.812l-4.111 130.477c-.334 5.217 6.517 8.267 10.17 4.5l134.785-130.478c1.757-1.7 2.306-4.296 1.389-6.562zm-133.884 118.121 3.462-109.87h110.036z"/><path d="m232.941 213.641c1.153 1.191 2.718 1.827 4.312 1.827.757 0 1.521-.143 2.25-.438 2.266-.917 3.749-3.117 3.749-5.562v-120.411c0-3.311-2.682-5.996-5.992-6l-116.726-.157h-.008c-2.407 0-4.582 1.439-5.522 3.655-.942 2.219-.465 4.786 1.212 6.518l116.726 120.567zm-1.689-118.591v99.595l-96.547-99.725z"/><path d="m379.353 130.167c0-1.623-.657-3.176-1.821-4.306l-115.055-111.667c-1.729-1.679-4.296-2.161-6.517-1.22-2.22.939-3.662 3.115-3.662 5.526v223.335c0 2.411 1.442 4.587 3.662 5.526.755.319 1.549.474 2.337.474 1.53 0 3.038-.586 4.18-1.694l115.055-111.667c1.164-1.13 1.821-2.683 1.821-4.306zm-98.852 81.757-16.203 15.726v-194.965l16.203 15.726zm12-11.647v-140.22l72.236 70.11z"/><path d="m496 245.831h-223.347c-2.41 0-4.587 1.442-5.526 3.663-.938 2.22-.458 4.787 1.221 6.517l111.673 115.048c1.13 1.164 2.684 1.821 4.306 1.821s3.176-.657 4.306-1.821l111.674-115.048c1.679-1.73 2.159-4.296 1.221-6.517-.939-2.22-3.116-3.663-5.526-3.663zm-111.674 112.434-67.73-69.777h135.461zm79.379-81.777h-158.758l-18.109-18.656h194.976z"/><path d="m415.236 111.3-120.573 116.72c-1.757 1.7-2.306 4.296-1.389 6.562s3.117 3.749 5.562 3.749h120.416c3.311 0 5.995-2.681 6-5.992l.157-116.72c.003-2.411-1.437-4.589-3.655-5.531-2.216-.939-4.785-.465-6.518 1.212zm-1.977 115.031h-99.6l99.729-96.542-.13 96.542z"/><path d="m278.613 283.498c-1.699-1.756-4.296-2.304-6.562-1.388-2.266.917-3.749 3.117-3.749 5.562v130.667c0 3.24 2.572 5.895 5.811 5.997l130.484 4.111c.064.002.127.003.19.003 2.368 0 4.523-1.396 5.486-3.572.988-2.234.523-4.846-1.177-6.602l-130.484-134.778zm1.689 129.027v-110.03l109.876 113.492z"/></svg>