<svg id="Hollow_Box" enable-background="new 0 0 512 512" height="512" viewBox="0 0 512 512" width="512" xmlns="http://www.w3.org/2000/svg"><path id="line" d="m466.8 122.7-208-112c-1.8-1-3.9-1-5.7 0l-208 112c-1.9 1-3.2 3.1-3.2 5.3v256c0 2.2 1.2 4.2 3.2 5.3l208 112c1.8 1 3.9 1 5.7 0l208-112c1.9-1 3.2-3.1 3.2-5.3v-256c0-2.2-1.2-4.2-3.2-5.3zm-210.8-99.9 195.3 105.2-195.3 105.2-195.3-105.2zm-202 115.3 196 105.5v242.4l-196-105.6zm208 347.9v-242.4l196-105.5v242.4z"/><path id="line-2" d="m108.1 133.3 145 80c1.8 1 4 1 5.8 0l144-80c2.9-1.6 3.9-5.3 2.3-8.2-.5-1-1.4-1.8-2.3-2.3l-144-80c-1.8-1-4-1-5.8 0l-145 80c-2.9 1.6-3.9 5.3-2.3 8.2.5.9 1.3 1.7 2.3 2.3zm153.9 64.5v-139.6l125.6 69.8zm-12-139.6v139.7l-126.6-69.9z"/><path id="line-3_1_" d="m228.9 252.7-148-80c-2.9-1.6-6.6-.5-8.1 2.4-.6.9-.8 1.9-.8 2.9v188c0 2.2 1.2 4.2 3.2 5.3l148 80c3.8 2.2 9-.9 8.9-5.3v-188c-.1-2.2-1.3-4.2-3.2-5.3zm-8.9 8.9v20.8l-136 73.5v-167.8zm-129.4 104.4 129.4-69.9v139.9z"/><path id="line-4_1_" d="m437.1 172.9c-1.8-1.1-4.1-1.1-5.9-.1l-148 80c-1.9 1-3.2 3.1-3.1 5.3v188c-.1 4.4 5 7.5 8.9 5.3l148-80c1.9-1 3.2-3.1 3.1-5.3v-188.1c-.1-2.1-1.2-4.1-3-5.1zm-9.1 15.2v167.9l-136-73.5v-20.8zm-136 108 129.4 69.9-129.4 69.9z"/></svg>