<svg width="1867" height="1564" viewBox="0 0 1867 1564" fill="none" opacity="5%" xmlns="http://www.w3.org/2000/svg"><path d="M82.704 743.815C104.97 460.863 317.1 90.413 613.233 165.051c274.564 69.202 144.309 271.142 374.862 404.288 230.555 133.147 478.855-152.499 695.475 27.689 125.73 104.586 155.07 307.558 46.55 490.262-108.51 182.7-354.87 345.12-780.544 368.62-402.099 22.19-622.05-114.74-739.862-277.76C91.903 1015.12 76.236 826.004 82.704 743.815Z" stroke="url(#a)" stroke-width=".87" stroke-miterlimit="10"/><path d="M935.157 1432.43c-368.773 20.89-571.757-103.77-681.076-253.27-108.352-148.69-123.91-321.544-118.719-398.5 18.517-261.87 212.899-605.225 486.775-543.667 252.882 56.839 141.597 238.287 354.707 359.313a271.27 271.27 0 0 0 18.27 9.408c165.216 77.345 338.526-50.865 498.726-28.781 43.49 5.995 86.09 22.854 127.06 57.777 117.85 100.453 143.52 288.7 42.11 457-102.09 169.02-333 318.01-727.853 340.72Z" stroke="url(#b)" stroke-width=".87" stroke-miterlimit="10"/><path d="M920.739 1408.95c-335.448 19.58-521.465-92.8-622.293-228.78-98.892-134.35-114.58-290.953-110.424-362.661 13.953-240.839 191.345-557.029 443.02-508.572 231.151 44.504 138.504 206.103 334.553 314.336 5.651 3.12 11.332 5.941 17.011 8.54 153.304 70.338 313.224-39.842 459.474-15.133 39.94 6.747 78.98 23.137 116.16 55.715 109.96 96.358 131.96 269.841 37.66 423.745-95.68 155.34-311.14 290.88-675.161 312.81Z" stroke="url(#c)" stroke-width=".87" stroke-miterlimit="10"/><path d="M906.32 1385.46c-302.123 18.29-471.52-81.56-563.509-204.29-89.771-119.76-105.113-260.343-102.13-326.816 9.865-219.763 169.721-508.795 399.265-473.476 209.359 32.212 135.642 173.543 314.401 269.36 5.228 2.802 10.495 5.327 15.751 7.671 141.392 63.331 287.942-28.78 420.222-1.485 36.39 7.508 71.86 23.445 105.26 53.653 102.05 92.31 120.4 250.98 33.21 390.483-89.27 141.66-289.27 263.77-622.47 284.9Z" stroke="url(#d)" stroke-width=".87" stroke-miterlimit="10"/><path d="M891.902 1361.98c-268.762 17.54-421.326-70.52-504.726-179.8-80.401-105.36-95.634-229.74-93.837-290.983 5.837-198.673 148.007-460.502 355.511-438.38 187.488 19.989 132.812 140.941 294.247 224.384 4.807 2.485 9.657 4.713 14.493 6.803 129.48 56.323 262.68-17.666 380.97 12.163 32.84 8.281 64.72 23.779 94.35 51.59 94.12 88.324 109.18 232.325 28.77 357.233-82.52 128.19-267.36 237.26-569.778 256.99Z" stroke="url(#e)" stroke-width=".87" stroke-miterlimit="10"/><path d="M877.482 1338.51c-235.427 16.32-371.116-59.48-445.941-155.31-71.015-90.96-86.137-199.133-85.542-255.15 1.886-177.571 126.18-412.11 311.756-403.284 165.522 7.873 130.027 108.285 274.094 179.409 4.387 2.165 8.821 4.097 13.233 5.933 117.568 49.317 237.438-6.481 341.718 25.812 29.3 9.073 57.55 24.147 83.45 49.528 86.14 84.414 97.67 213.502 24.32 323.972-76.06 114.55-245.48 210.26-517.088 229.09Z" stroke="url(#f)" stroke-width=".87" stroke-miterlimit="10"/><path d="M863.065 1315.02c-202.095 15.07-320.885-48.44-387.157-130.82-61.602-76.57-76.613-168.51-77.249-219.305-1.962-156.454 104.225-363.544 268.001-368.186 143.451-4.067 127.298 75.551 253.94 134.432 3.969 1.845 7.983 3.483 11.974 5.066 105.656 42.308 212.196 4.804 302.466 39.458 25.77 9.89 50.36 24.554 72.55 47.465 78.09 80.608 86.14 194.67 19.87 290.72-69.61 100.9-223.6 183.22-464.395 201.17Z" stroke="url(#g)" stroke-width=".87" stroke-miterlimit="10"/><path d="M848.647 1291.54c-168.765 13.77-270.616-37.43-328.373-106.33-52.15-62.21-67.046-137.89-68.955-183.47-5.666-135.326 81.353-322.267 224.247-333.09 121.962-9.237 124.64 42.704 233.787 89.457 3.552 1.521 7.146 2.869 10.716 4.198 93.741 35.302 186.931 16.224 263.221 53.107 22.22 10.744 43.11 25.009 61.64 45.403 69.91 76.94 74.58 175.815 15.42 257.455-63.2 87.24-201.72 156.14-411.703 173.27Z" stroke="url(#h)" stroke-width=".87" stroke-miterlimit="10"/><path d="M834.228 1268.06c-135.44 12.39-220.287-26.46-269.589-81.84-42.636-47.9-57.418-107.27-60.662-147.63-9.177-114.203 60.06-265.3 180.493-297.998 99.095-26.905 122.072 9.684 213.633 44.48 3.138 1.193 6.31 2.254 9.457 3.329 81.83 28.296 161.59 27.82 223.96 66.755 18.67 11.65 35.82 25.518 50.75 43.341 61.52 73.469 62.96 156.933 10.97 224.203-56.83 73.54-179.85 128.97-359.012 145.36Z" stroke="url(#i)" stroke-width=".87" stroke-miterlimit="10"/><path d="M836.04 1230.29c-115.937 10.82-188.33-20.58-230.228-65.7-36.233-39.02-48.578-87.57-51.148-120.62-7.271-93.485 52.733-217.582 155.935-244.959 84.916-22.526 104.388 7.327 182.545 35.373 2.679.962 5.387 1.815 8.075 2.68 69.864 22.77 138.111 21.986 191.271 53.566 15.91 9.449 30.51 20.723 43.19 35.247 52.27 59.869 53.07 128.223 8.25 183.573-49 60.51-154.526 106.53-307.89 120.84Z" stroke="url(#j)" stroke-width=".87" stroke-miterlimit="10"/><defs><linearGradient id="a" x1="841.821" y1="112.088" x2="1020.19" y2="1451.72" gradientUnits="userSpaceOnUse"><stop stop-color="#fff"/><stop offset="1" stop-color="#fff" stop-opacity="0"/></linearGradient><linearGradient id="b" x1="840.173" y1="189.749" x2="1005.01" y2="1427.76" gradientUnits="userSpaceOnUse"><stop stop-color="#fff"/><stop offset="1" stop-color="#fff" stop-opacity="0"/></linearGradient><linearGradient id="c" x1="838.433" y1="267.247" x2="989.767" y2="1403.82" gradientUnits="userSpaceOnUse"><stop stop-color="#fff"/><stop offset="1" stop-color="#fff" stop-opacity="0"/></linearGradient><linearGradient id="d" x1="836.634" y1="344.528" x2="974.491" y2="1379.88" gradientUnits="userSpaceOnUse"><stop stop-color="#fff"/><stop offset="1" stop-color="#fff" stop-opacity="0"/></linearGradient><linearGradient id="e" x1="834.844" y1="421.485" x2="959.287" y2="1356.09" gradientUnits="userSpaceOnUse"><stop stop-color="#fff"/><stop offset="1" stop-color="#fff" stop-opacity="0"/></linearGradient><linearGradient id="f" x1="832.91" y1="497.999" x2="943.983" y2="1332.2" gradientUnits="userSpaceOnUse"><stop stop-color="#fff"/><stop offset="1" stop-color="#fff" stop-opacity="0"/></linearGradient><linearGradient id="g" x1="830.813" y1="573.783" x2="928.614" y2="1308.3" gradientUnits="userSpaceOnUse"><stop stop-color="#fff"/><stop offset="1" stop-color="#fff" stop-opacity="0"/></linearGradient><linearGradient id="h" x1="828.401" y1="648.023" x2="913.136" y2="1284.42" gradientUnits="userSpaceOnUse"><stop stop-color="#fff"/><stop offset="1" stop-color="#fff" stop-opacity="0"/></linearGradient><linearGradient id="i" x1="825.369" y1="719.083" x2="897.466" y2="1260.55" gradientUnits="userSpaceOnUse"><stop stop-color="#fff"/><stop offset="1" stop-color="#fff" stop-opacity="0"/></linearGradient><linearGradient id="j" x1="831.253" y1="780.697" x2="890.254" y2="1223.81" gradientUnits="userSpaceOnUse"><stop stop-color="#fff"/><stop offset="1" stop-color="#fff" stop-opacity="0"/></linearGradient></defs></svg>