<svg id="Layer_1" data-name="Layer 1" xmlns="http://www.w3.org/2000/svg" viewBox="0 0 9739.21 5117.96"><defs><style>.cls-1{fill:#fff;}</style></defs><path class="cls-1" d="M9228.13,5299.82h-3.38c-135.58-171.71-268.52-347.49-401-522.68C8386.44,4198.94,7954,3627.07,7447.44,3229c-1167.86-917.87-2730-911.42-5653.43,2070.83h-3.7C4716.33,2314.37,6280,2308.09,7449.14,3227c506.77,398.28,939.37,970.28,1376.76,1548.63,132.89,175.72,266.24,352,402.23,524.21m115.17,0h-3.51c-173-200.8-342.5-409.29-511.82-617.54-470-578-938.41-1154.18-1475.35-1558.7-1259.26-948.67-2896.1-952.88-5814.68,2176.24h-3.61c2921-3132.32,4559.36-3128,5819.94-2178.28,537.23,404.73,1005.77,981,1475.82,1559.13C8999.86,4889.48,9169.83,5098.53,9343.3,5299.82Zm135.63,0h-3.63c-213-227.33-422.11-467.68-631.67-708.55-505.38-581-1013.5-1165-1585.94-1577.12C5903,2039,4187.42,2027.55,1293.64,5299.82h-3.56C4186.14,2024.34,5903.29,2035.89,7259.3,3012.06,7832,3424.33,8340.21,4008.53,8845.7,4589.59,9055.77,4831.06,9265.37,5072,9478.93,5299.82Zm156.26,0h-3.76c-254.88-250.76-506.22-521.95-759.32-795.06C8327.5,3917.1,7774.61,3320.51,7160.27,2899.39,5706.92,1903.17,3908.94,1889.76,1061.51,5299.82h-3.45c2849.52-3413.25,4649-3399.71,6103.77-2402.54,614.56,421.26,1167.56,1018,1712.28,1605.74C9127.8,4776.78,9379.71,5048.59,9635.19,5299.82Zm104-66.84v3.6C9464.88,4982.86,9191.7,4705,8915,4423.6,8326.25,3824.73,7721.76,3209.87,7057.39,2778,5503,1767.49,3620.06,1759.22,842.1,5299.82h-3.37c2779.89-3543.77,4664.35-3535.39,6220.15-2524,664.63,432.07,1269.23,1047,1858.11,1646C9193,4702.54,9465.55,4979.76,9739.21,5233Zm0-168.23v3.55c-252.18-226-506.34-470.71-764.76-719.46-639.14-615.26-1304.21-1255.48-2028.88-1700.19C5288.84,1632,3320,1637.89,635.92,5299.82h-3.3C3318.51,1634.74,5288.87,1628.91,6947,2646.45,7671.91,3091.31,8337.09,3731.63,8976.35,4347,9234.12,4595.13,9487.66,4839.19,9739.21,5064.75Zm0-168.68v3.51c-224.79-195.52-453.32-404.56-686.34-617.71-697-637.54-1434.25-1311.92-2232-1771.55C5062,1496.82,3008.57,1527.82,443.55,5299.82h-3.21C3007,1524.73,5061.91,1493.76,6822.29,2508.08c798,459.8,1535.35,1134.28,2232.43,1771.91C9287.12,4492.56,9515,4701,9739.21,4896.07Zm0-169.08v3.45c-191.1-161.49-386.34-331.89-585.74-505.91-763.35-666.22-1587.7-1385.67-2474.3-1862.32C4819.63,1362.49,2685.86,1431.06,265.63,5299.82H262.5c2421.66-3871.81,4557-3940.37,6418-2939.88,886.86,476.79,1711.34,1196.35,2474.8,1862.67C9354,4396.08,9548.68,4566,9739.21,4727Zm0-169.47v3.42c-149.66-123-302.67-251-458.84-381.59C8441.43,3477.67,7510.91,2699.39,6516,2204,4559.27,1229.85,2353.07,1350.29,103.34,5299.82h-3.08c2251-3952.56,4458.78-4073,6416.92-3098.1,995.23,495.5,1925.9,1273.89,2764.95,1975.67C9437.69,4307.49,9590.11,4435,9739.21,4557.52Zm0-169.81v3.38q-147.43-118-300.08-241.18C8515.6,3406,7454.23,2551.11,6326.85,2036,4292.6,1106.52,2043.14,1284,0,5216.6v-5.83C2043.44,1280.85,4293.27,1104,6328,2033.65,7455.69,2548.92,8517.21,3404,9440.86,4147.92Q9592.57,4270.11,9739.21,4387.71Zm0-170.12v3.34q-50.47-39.35-101.68-79.31c-1015.1-792-2239.93-1747.7-3529.87-2282.62C4041,1002,1807,1225.68,0,4932.7v-6.11c1807.44-3704,4041.68-3927.17,6108.71-3070C7399,2391.67,8624,3347.46,9639.22,4139.59Q9689.56,4178.88,9739.21,4217.59Zm0-170.42v3.31c-1086-825.83-2458.72-1846.69-3884.69-2375.91C3774.76,902.69,1581.73,1177.22,0,4628.06v-6.35C1582.33,1174.14,3775.49,900.18,5855.48,1672.14,7281.12,2201.25,8653.38,3221.46,9739.21,4047.17Zm0-170.71v3.29C8593.82,3029.52,7093.79,1983.91,5564.28,1485,3495.43,810.16,1372.57,1136.23,0,4299v-6.7C1373.36,1133.09,3496.22,807.68,5565.12,1482.53,7094.34,1981.34,8593.88,3026.35,9739.21,3876.46Zm0-170.92v3.24C8413.35,2747.36,6567.75,1551.2,4777,1181.68,2906.39,795.7,1095.75,1312.31,0,3941v-6.91C1096.61,1309,2907.1,793.19,4777.55,1179.14,6568.1,1548.6,8413.25,2744.16,9739.21,3705.54Zm0-171.18v3.23C8388,2579.74,6453.49,1404.47,4610.39,1048.81,2748,689.43,979.1,1167.23,0,3552.35v-6.95C980.15,1164,2748.83,686.93,4610.92,1046.26,6453.76,1401.88,8387.82,2576.57,9739.21,3534.36Zm0-171.4v3.21c-1373-952.08-3390.3-2103-5281.84-2447.78-737.48-134.42-1455.81-146.3-2109.31,24S1106,1464.91,627.78,2058.91C389.12,2355.38,178,2712.07,0,3136.35v-6.9c177.55-421.9,388-776.87,625.65-1072.14,478.58-594.48,1067.73-947.11,1721.71-1117.48s1372.65-158.48,2110.5-24C6349.15,1260.58,8366,2411,9739.21,3363Zm0-171.62v3.17C8275,2200.65,6032.76,1008.13,4014.44,743.68,3322.15,653,2656.23,671.46,2057.14,844.62S925.88,1345.55,500.89,1873.47C311.42,2108.83,143.27,2384,0,2702.94v-6.57c142.82-316.81,310.25-590.33,498.77-824.5,425.35-528.37,958.05-856.45,1557.61-1029.75s1265.76-191.77,1958.42-101C6032.9,1005.54,8274.7,2197.5,9739.21,3191.34Zm0-171.84v3.17c-1064-707.41-2561.45-1506-4084.44-1995.89C4516.79,660.72,3364.58,467,2368.33,612.49c-996,145.45-1836.2,630-2350.32,1620.41q-9.09,17.49-18,35.21v-5.92q7.76-15.29,15.6-30.44C530.17,1240.45,1371.05,755.49,2367.94,609.92c996.68-145.53,2149.32,48.23,3287.68,414.41C7178.14,1514.08,8675.08,2312.25,9739.21,3019.5Zm0-172v3.13c-1137.36-741-2794.16-1571.4-4446.82-2039.37C4167.17,492.67,3043.93,342.07,2088,502.12,1206.48,649.72,467.24,1061.56,0,1849.51v-5.22C467.8,1058.14,1206.71,647,2087.58,499.56c956.34-160.12,2080-9.49,3205.56,309.23C6945.35,1276.62,8601.68,2106.63,9739.21,2847.52Zm0-172.17v3.13C8526.32,1903.62,6696.55,1043.1,4912.76,603.93,3806,331.46,2717.09,221.18,1804.33,394.23,1054.86,536.31,424.22,869.5,0,1460.72v-4.57C424.61,866.25,1055,533.64,1803.82,391.67,2717,218.55,3806.35,328.84,4913.42,601.41,6696.76,1040.47,8526.07,1900.62,9739.21,2675.35Zm0-172.3v3.09c-1289.27-808-3303.55-1695.74-5216.59-2099.6C3439.2,177.82,2388.33,104.3,1520.18,288.37,903.16,419.2,378.49,680.21,0,1108.08v-4C378.72,677.11,903.12,416.53,1519.61,285.83,2388.16,101.67,3439.43,175.2,4523.18,404,6435.81,807.76,8449.62,1695.12,9739.21,2503.05ZM2057.6,5299.82c2912.82-2836.3,4405.92-2855.17,5488.16-1970.27C8026,3722.25,8425.33,4292.8,8832,4873.86c99.49,142.17,199.44,285,301.12,426h-3.29c-101.32-140.51-200.91-282.82-300.07-424.5C8423.19,4294.4,8024,3724,7544,3331.54c-1081-883.85-2572.56-864.83-5482.65,1968.28Z" transform="translate(0 -181.87)"/></svg>