<svg width="1440" height="1600" viewBox="0 0 1440 1600" fill="none" xmlns="http://www.w3.org/2000/svg">
<g opacity="0.1">
<path d="M-221.36 709.34C-198.572 419.722 18.522 40.5429 321.587 116.94C602.577 187.772 469.273 394.471 705.222 530.754C941.171 667.037 1195.28 374.661 1416.97 559.095C1545.65 666.145 1575.67 873.9 1464.62 1060.9C1353.57 1247.91 1101.44 1414.16 665.802 1438.21C254.292 1460.93 29.1916 1320.77 -91.3772 1153.91C-211.946 987.042 -227.98 793.466 -221.36 709.34Z" stroke="url(#paint0_linear_807_23080)" stroke-miterlimit="10"/>
<path d="M651.044 1414.18C273.639 1435.56 65.9036 1307.97 -45.9741 1154.94C-156.861 1002.75 -172.784 825.822 -167.471 747.054C-148.521 479.014 50.4113 127.568 330.697 190.577C589.498 248.755 475.608 434.479 693.706 558.356C699.927 561.862 706.16 565.065 712.404 567.985C881.491 647.152 1058.85 515.922 1222.81 538.526C1267.31 544.663 1310.91 561.919 1352.84 597.665C1473.45 700.485 1499.71 893.167 1395.94 1065.43C1291.45 1238.44 1055.13 1390.93 651.044 1414.18Z" stroke="url(#paint1_linear_807_23080)" stroke-miterlimit="10"/>
<path d="M636.288 1390.14C292.988 1410.19 102.617 1295.16 -0.57133 1155.97C-101.777 1018.46 -117.832 858.168 -113.58 784.77C-99.2996 538.257 82.2442 214.616 339.81 264.215C576.372 309.768 481.556 475.175 682.194 585.958C687.976 589.151 693.79 592.039 699.603 594.699C856.497 666.694 1020.16 553.918 1169.83 579.209C1210.7 586.116 1250.66 602.892 1288.71 636.237C1401.25 734.865 1423.76 912.436 1327.25 1069.97C1229.33 1228.97 1008.83 1367.7 636.288 1390.14Z" stroke="url(#paint2_linear_807_23080)" stroke-miterlimit="10"/>
<path d="M621.53 1366.11C312.335 1384.82 138.973 1282.62 44.831 1157C-47.041 1034.42 -62.7427 890.523 -59.6897 822.484C-49.5938 597.543 114.003 301.701 348.921 337.852C563.18 370.823 487.737 515.484 670.68 613.558C676.031 616.426 681.421 619.011 686.8 621.41C831.504 686.234 981.485 591.952 1116.86 619.891C1154.1 627.575 1190.4 643.888 1224.58 674.808C1329.02 769.293 1347.8 931.701 1258.57 1074.5C1167.21 1219.49 962.53 1344.47 621.53 1366.11Z" stroke="url(#paint3_linear_807_23080)" stroke-miterlimit="10"/>
<path d="M606.777 1342.07C331.725 1360.02 175.589 1269.89 90.2377 1158.03C7.95397 1050.19 -7.63565 922.881 -5.79561 860.195C0.177046 656.841 145.675 388.843 358.036 411.486C549.912 431.946 493.957 555.748 659.17 641.157C664.09 643.7 669.054 645.981 674.002 648.12C806.513 705.77 942.834 630.038 1063.89 660.569C1097.5 669.046 1130.12 684.909 1160.45 713.375C1256.77 803.78 1272.18 951.174 1189.89 1079.02C1105.44 1210.24 916.276 1321.88 606.777 1342.07Z" stroke="url(#paint4_linear_807_23080)" stroke-miterlimit="10"/>
<path d="M592.024 1318.04C351.086 1334.74 212.221 1257.16 135.645 1159.07C62.9678 1065.96 47.4922 955.247 48.1008 897.91C50.0305 716.155 177.234 476.09 367.153 485.124C536.55 493.182 500.224 595.96 647.663 668.759C652.153 670.976 656.69 672.954 661.206 674.833C781.526 725.312 904.199 668.199 1010.92 701.252C1040.91 710.539 1069.82 725.969 1096.33 751.947C1184.48 838.351 1196.28 970.48 1121.22 1083.55C1043.38 1200.81 869.99 1298.77 592.024 1318.04Z" stroke="url(#paint5_linear_807_23080)" stroke-miterlimit="10"/>
<path d="M577.269 1294C370.444 1309.43 248.873 1244.42 181.05 1160.1C118.006 1081.72 102.645 987.616 101.994 935.623C99.9855 775.483 208.658 563.513 376.268 558.762C523.076 554.6 506.545 636.094 636.151 696.362C640.213 698.25 644.321 699.927 648.405 701.547C756.533 744.852 865.563 706.464 957.954 741.935C984.322 752.058 1009.49 767.068 1032.2 790.519C1112.11 873.026 1120.35 989.773 1052.54 1088.08C981.294 1191.36 823.7 1275.62 577.269 1294Z" stroke="url(#paint6_linear_807_23080)" stroke-miterlimit="10"/>
<path d="M562.511 1269.97C389.795 1284.06 285.56 1231.66 226.451 1161.13C173.081 1097.45 157.836 1019.99 155.882 973.338C150.083 834.822 239.14 643.476 385.378 632.398C510.194 622.943 512.936 676.108 624.637 723.963C628.273 725.52 631.95 726.899 635.604 728.26C731.541 764.393 826.908 744.866 904.981 782.618C927.726 793.615 949.104 808.217 968.068 829.091C1039.62 907.844 1044.39 1009.05 983.855 1092.62C919.172 1181.91 777.405 1252.43 562.511 1269.97Z" stroke="url(#paint7_linear_807_23080)" stroke-miterlimit="10"/>
<path d="M547.752 1245.93C409.142 1258.62 322.309 1218.85 271.853 1162.16C228.219 1113.14 213.091 1052.36 209.771 1011.05C200.38 894.16 271.237 739.504 394.489 706.035C495.903 678.497 519.418 715.947 613.122 751.563C616.334 752.785 619.579 753.87 622.801 754.971C706.545 783.933 788.175 783.446 852.007 823.299C871.106 835.223 888.659 849.418 903.936 867.661C966.905 942.861 968.378 1028.29 915.172 1097.15C857.003 1172.42 731.107 1229.16 547.752 1245.93Z" stroke="url(#paint8_linear_807_23080)" stroke-miterlimit="10"/>
<path d="M549.61 1207.27C430.958 1218.34 356.871 1186.2 313.993 1140.02C276.911 1100.09 264.278 1050.39 261.647 1016.57C254.207 920.873 315.615 793.853 421.232 765.831C508.136 742.774 528.064 773.331 608.05 802.037C610.792 803.022 613.563 803.895 616.314 804.781C687.813 828.087 757.653 827.284 812.062 859.609C828.341 869.28 843.287 880.82 856.263 895.686C909.754 956.965 910.58 1026.93 864.709 1083.59C814.561 1145.52 706.563 1192.62 549.61 1207.27Z" stroke="url(#paint9_linear_807_23080)" stroke-miterlimit="10"/>
</g>
<defs>
<linearGradient id="paint0_linear_807_23080" x1="555.525" y1="62.7291" x2="738.125" y2="1433.91" gradientUnits="userSpaceOnUse">
<stop stop-color="#B5D5D1"/>
<stop offset="1" stop-color="#B5D5D1" stop-opacity="0"/>
</linearGradient>
<linearGradient id="paint1_linear_807_23080" x1="553.836" y1="142.22" x2="722.586" y2="1409.4" gradientUnits="userSpaceOnUse">
<stop stop-color="#B5D5D1"/>
<stop offset="1" stop-color="#B5D5D1" stop-opacity="0"/>
</linearGradient>
<linearGradient id="paint2_linear_807_23080" x1="552.055" y1="221.543" x2="706.978" y2="1384.89" gradientUnits="userSpaceOnUse">
<stop stop-color="#B5D5D1"/>
<stop offset="1" stop-color="#B5D5D1" stop-opacity="0"/>
</linearGradient>
<linearGradient id="paint3_linear_807_23080" x1="550.212" y1="300.645" x2="691.338" y2="1360.39" gradientUnits="userSpaceOnUse">
<stop stop-color="#B5D5D1"/>
<stop offset="1" stop-color="#B5D5D1" stop-opacity="0"/>
</linearGradient>
<linearGradient id="paint4_linear_807_23080" x1="548.384" y1="379.415" x2="675.777" y2="1336.04" gradientUnits="userSpaceOnUse">
<stop stop-color="#B5D5D1"/>
<stop offset="1" stop-color="#B5D5D1" stop-opacity="0"/>
</linearGradient>
<linearGradient id="paint5_linear_807_23080" x1="546.408" y1="457.726" x2="660.115" y2="1311.58" gradientUnits="userSpaceOnUse">
<stop stop-color="#B5D5D1"/>
<stop offset="1" stop-color="#B5D5D1" stop-opacity="0"/>
</linearGradient>
<linearGradient id="paint6_linear_807_23080" x1="544.262" y1="535.296" x2="644.382" y2="1287.12" gradientUnits="userSpaceOnUse">
<stop stop-color="#B5D5D1"/>
<stop offset="1" stop-color="#B5D5D1" stop-opacity="0"/>
</linearGradient>
<linearGradient id="paint7_linear_807_23080" x1="541.79" y1="611.285" x2="628.535" y2="1262.67" gradientUnits="userSpaceOnUse">
<stop stop-color="#B5D5D1"/>
<stop offset="1" stop-color="#B5D5D1" stop-opacity="0"/>
</linearGradient>
<linearGradient id="paint8_linear_807_23080" x1="538.686" y1="684.019" x2="612.492" y2="1238.24" gradientUnits="userSpaceOnUse">
<stop stop-color="#B5D5D1"/>
<stop offset="1" stop-color="#B5D5D1" stop-opacity="0"/>
</linearGradient>
<linearGradient id="paint9_linear_807_23080" x1="544.711" y1="747.085" x2="605.11" y2="1200.64" gradientUnits="userSpaceOnUse">
<stop stop-color="#B5D5D1"/>
<stop offset="1" stop-color="#B5D5D1" stop-opacity="0"/>
</linearGradient>
</defs>
</svg>
