<svg xmlns="http://www.w3.org/2000/svg" width="1248" height="1248" fill="none" preserveAspectRatio="xMidYMid slice" viewBox="0 0 1248 1248">
  <g stroke="#fff" stroke-miterlimit="10">
    <path d="M-578 734c22-289 240-668 543-592 281 71 147 277 383 414 236 136 490-156 712 28 129 107 159 315 48 502s-364 353-799 377c-412 23-637-117-757-284a718 718 0 0 1-130-445Z"/>
    <path d="M294 1439c-377 22-585-106-697-259a664 664 0 0 1-121-408c18-268 217-619 498-556 259 58 145 243 363 367l18 10c169 79 347-52 511-29 44 6 88 23 130 59 120 102 147 295 43 467-105 173-341 326-745 349Z"/>
    <path d="M279 1415c-343 20-533-95-637-234a608 608 0 0 1-113-371c15-247 196-570 454-521 236 46 142 211 342 322l18 9c157 72 320-41 470-16 41 7 81 24 119 57 112 99 135 276 38 434-98 159-318 298-691 320Z"/>
    <path d="M265 1391c-310 19-483-83-577-209a549 549 0 0 1-105-335c10-224 174-520 409-484 214 33 139 177 322 276l16 7c145 65 294-29 430-1 37 8 73 24 108 55 104 94 123 257 34 400-92 144-296 269-637 291Z"/>
    <path d="M250 1367c-275 18-431-72-517-184a493 493 0 0 1-96-298c6-203 152-471 364-449 192 21 136 145 301 230l15 7c133 58 269-18 390 13 34 8 66 24 96 52 97 91 112 238 30 366-85 131-274 243-583 263Z"/>
    <path d="M235 1343c-241 17-380-61-456-159-73-93-89-204-88-261 2-182 129-422 319-413 170 8 133 111 281 184l13 6c121 50 243-7 350 26 30 10 59 25 85 51 88 86 100 218 25 332-78 117-251 215-529 234Z"/>
    <path d="M220 1319c-207 15-328-50-396-134-63-78-78-172-79-224-2-161 107-372 274-377 147-4 131 77 260 137l12 6c109 43 218 4 310 40a228 228 0 0 1 95 346c-72 103-229 188-476 206Z"/>
    <path d="M206 1295c-173 14-277-38-337-109-53-64-68-141-70-188-6-138 83-330 229-341 125-9 128 44 240 92l11 4c96 36 191 17 269 55 23 11 44 25 63 46 72 79 76 180 16 264-65 89-207 159-421 177Z"/>
    <path d="M191 1271c-139 13-226-27-276-84-44-49-59-110-62-151-10-117 61-271 184-305 102-28 125 10 219 46l10 3c84 29 165 28 229 68 19 12 37 26 52 45 63 75 64 160 11 229-58 75-184 132-367 149Z"/>
    <path d="M193 1232c-119 11-193-21-236-67-37-40-50-90-52-123-8-96 54-223 159-251 87-23 107 7 187 36l8 3c72 23 142 22 196 55 16 9 31 21 44 36 54 61 55 131 9 188-50 62-158 109-315 123Z"/>
  </g>
</svg>