<svg width="26" height="25" viewBox="0 0 26 25" fill="none" xmlns="http://www.w3.org/2000/svg">
<mask id="mask0_457_168" style="mask-type:alpha" maskUnits="userSpaceOnUse" x="0" y="0" width="26" height="25">
<rect width="26" height="25" fill="#FF0000"/>
</mask>
<g mask="url(#mask0_457_168)">
<path d="M24.6154 1.75736L25.715 1.78754L25.7452 0.68795L24.6456 0.657778L24.6154 1.75736ZM0.58702 22.9877C0.145822 23.4053 0.126719 24.1016 0.544351 24.5428C0.961984 24.984 1.6582 25.0031 2.0994 24.5854L0.58702 22.9877ZM25.3007 16.888L25.715 1.78754L23.5158 1.72719L23.1015 16.8277L25.3007 16.888ZM24.6456 0.657778L9.54512 0.24344L9.48478 2.44261L24.5853 2.85695L24.6456 0.657778ZM23.8592 0.958505L0.58702 22.9877L2.0994 24.5854L25.3716 2.55622L23.8592 0.958505Z" fill="white"/>
</g>
</svg>
