<svg id="Layer_1" data-name="Layer 1" xmlns="http://www.w3.org/2000/svg" viewBox="0 0 166.03 106.3"><defs><style>.cls-1{fill:#fff;fill-rule:evenodd;}</style></defs><path class="cls-1" d="M87.11,1h0c-.42.51-.83,1-1.28,1.46-1,.91-2,1.82-3,2.74h0C80.22,7.55,77.68,9.85,75,12q-20.1,15.75-40.1,31.5L9.13,63.9h0a10.63,10.63,0,0,0-1.1.9c-.7.6-1.5,1-2.4.2a1.72,1.72,0,0,1-.1-2.4,15.1,15.1,0,0,1,2.2-2.8l1.45-1.32h0C12,55.9,14.84,53.3,17.83,51c21.6-16.6,43.3-33.1,65.8-48.5,1.2-.9,2.5-1.7,3.8-2.5a1.09,1.09,0,0,0,.4.2Q87.46.62,87.11,1ZM166,21.9c-.35.2-.7.43-1.05.65s-.7.45-1,.65c-14.6,8.6-29,17.5-43.1,27-21.6,14.4-43,29.2-63.4,45.2-3.8,3-7.5,6-11.2,9a19.23,19.23,0,0,1-1.7,1.3c-.8.6-1.6.9-2.4.2a1.72,1.72,0,0,1-.1-2.4,11.83,11.83,0,0,1,2.2-2.8l.12-.11A95.44,95.44,0,0,1,52,94c30.4-23,61.6-44.5,94.9-63,3.8-2.13,7.69-4.09,11.57-6,1.95-1,3.89-2,5.83-3,.5-.2,1-.4,1.4-.6A2.19,2.19,0,0,1,166,21.9ZM99.93,8.5a15.37,15.37,0,0,0,1.9-1.7,1.07,1.07,0,0,0-.5-.3c-.7.5-1.4,1-2.1,1.55s-1.4,1-2.1,1.55L85,18.33h0C65.73,32.22,46.41,46.14,27.23,60.2c-5.4,3.9-10.49,8.11-15.6,12.33h0C9.54,74.26,7.44,76,5.33,77.7a38.72,38.72,0,0,0-4.1,4A4.39,4.39,0,0,0,0,83.5,1.91,1.91,0,0,0,.43,85a1.6,1.6,0,0,0,1.5.2,10.71,10.71,0,0,0,2.2-1.5c2.41-2,4.8-4,7.19-6,4.24-3.56,8.46-7.11,12.81-10.5Q40,54.84,56,42.67h0q11.73-9,23.42-18c6.9-5.4,13.69-10.8,20.49-16.2Zm.5,13.5c-1.1,1-2.2,2-3.4,2.9L87,32.66h0C76,41.18,65,49.71,54.13,58.3,47.68,63.39,41.32,68.57,35,73.72Q29.74,78,24.53,82.2h0A15,15,0,0,1,22,84.1a2.11,2.11,0,0,1-1.9,0,1.85,1.85,0,0,1-.2-1.9,9.12,9.12,0,0,1,1.7-2.3L23.68,78h0c1.69-1.59,3.39-3.19,5.25-4.69,20-15.8,40.2-31.3,61.3-45.6,2.29-1.56,4.72-3.11,7.06-4.62h0l1.54-1a7.46,7.46,0,0,0,1.2-.7,2.43,2.43,0,0,0,.19.27h0Zm6.93,13.44.57-.64a3,3,0,0,1-.4-.3h0c-1.5,1.1-3,2.2-4.5,3.2-16.7,11.1-32.8,23-48.7,35.1-4.7,3.5-9.3,7.1-13.9,10.7h0A17.53,17.53,0,0,0,38,85.8a1.73,1.73,0,0,0-.2,2.4,1.65,1.65,0,0,0,2.4.3,22,22,0,0,0,3.2-2.1c1.75-1.4,3.47-2.83,5.2-4.25s3.45-2.85,5.2-4.25Q72,63.65,90.33,49.5l15-12A15.88,15.88,0,0,0,107.36,35.44Z" transform="translate(0)"/></svg>